<svg width="191" height="208" viewBox="0 0 191 208" fill="none" xmlns="http://www.w3.org/2000/svg">
<path d="M0.261047 166.937C0.269369 114.001 0.267282 61.3961 0.27261 8.79113C0.273352 1.47657 0.856439 0.91195 7.9818 0.923885C17.1196 0.939185 26.2575 0.925168 35.3953 0.93588C41.911 0.943518 42.9546 1.97046 42.9681 8.79992C43.0099 29.9476 43.0079 51.0953 43.0087 72.243C43.0098 103.039 43.0103 133.836 42.9843 164.632C42.9779 172.173 42.0424 173.097 34.777 173.134C32.2031 173.147 29.6231 173.245 27.0567 173.102C24.0259 172.932 22.9852 174.305 23.0227 177.336C23.1325 186.19 23.0833 195.047 23.0188 203.902C23.0085 205.316 23.6841 207.603 21.2554 207.461C19.2966 207.347 19.7961 205.295 19.788 203.937C19.7378 195.478 19.7472 187.019 19.7306 178.56C19.7202 173.229 19.5764 173.111 14.227 173.175C11.3964 173.21 8.56157 173.258 5.73487 173.142C1.57567 172.97 0.514149 171.765 0.261047 166.937Z" fill="black"/>
<path d="M75.5962 64.5337C75.5861 70.4802 75.6974 76.0343 75.52 81.5785C75.4179 84.7701 76.4282 86.2211 79.6961 86.0179C82.9013 85.8187 86.1287 85.9066 89.3435 85.986C93.5298 86.0894 94.9898 87.4977 94.9968 91.7214C95.0382 116.96 95.0424 142.199 94.9973 167.438C94.9898 171.606 93.4393 173.12 89.2916 173.145C78.9984 173.207 68.7041 173.224 58.4112 173.136C53.6995 173.096 52.2293 171.552 52.2169 166.582C52.1552 141.872 52.1473 117.162 52.1805 92.4513C52.1872 87.4458 53.5254 86.1415 58.4204 86.0128C61.7637 85.925 65.1146 85.8876 68.4551 86.0173C71.2496 86.1258 72.4285 85.0049 72.337 82.0774C72.1966 77.589 72.283 73.093 72.2826 68.6002C72.2781 24.7292 72.2753 51.8582 72.2744 7.98726C72.2744 7.06323 72.265 6.13629 72.3297 5.2159C72.4055 4.13964 72.9811 3.4967 74.0741 3.55714C74.9844 3.60747 75.4344 4.23682 75.5031 5.11464C75.575 6.03444 75.5868 6.96102 75.5869 7.88464C75.5927 50.3021 75.5944 21.7196 75.5962 64.5337Z" fill="black"/>
<path d="M133.38 86.883C123.254 86.9924 124.438 85.7597 124.375 95.7713C124.342 101.052 124.377 106.333 124.346 111.613C124.339 112.781 124.423 114.233 122.747 114.202C121.198 114.173 121.023 112.808 121.014 111.603C120.965 105.002 120.797 98.396 121.011 91.8033C121.136 87.9368 119.659 86.5814 116.046 86.8567C113.361 87.0612 110.65 86.8998 107.95 86.8892C102.423 86.8675 101.159 85.7211 101.074 79.9123C100.934 70.277 100.971 60.6388 100.96 51.0018C100.957 48.6272 100.956 46.2441 101.137 43.8799C101.365 40.9247 102.942 39.4125 105.947 39.4227C116.988 39.4598 128.029 39.3935 139.07 39.4479C142.085 39.4627 143.829 40.9276 143.81 44.325C143.743 56.601 143.797 68.8777 143.736 81.1537C143.717 85.0435 142.146 86.6341 138.379 86.8476C136.841 86.9348 135.294 86.875 133.38 86.883Z" fill="black"/>
<path d="M189.255 85.4212C187.585 86.7768 185.888 86.7151 184.227 86.7175C174.222 86.7316 164.217 86.7595 154.213 86.7049C149.822 86.6809 147.853 84.8131 147.967 81.065C148.069 77.6992 149.832 76.2221 154.051 76.2058C164.184 76.1666 174.317 76.161 184.45 76.209C190.538 76.2379 192.376 79.5741 189.255 85.4212Z" fill="black"/>
</svg>
